<svg width="57" height="57" viewBox="0 0 57 57" fill="none" xmlns="http://www.w3.org/2000/svg">
<g clip-path="url(#clip0)">
<path d="M56.0497 1.78613H50.3502C49.8256 1.78613 49.4002 2.21146 49.4002 2.73606V4.6359H48.4647L41.9906 1.86313C41.8737 1.81257 41.7475 1.78613 41.6204 1.78613H31.6272C29.8647 1.78892 28.1749 2.48976 26.9277 3.73515L19.1924 11.4593C17.9377 12.6801 17.6938 14.6064 18.6047 16.1013C18.7527 16.3193 18.922 16.522 19.1108 16.7057C18.4187 17.9539 18.0551 19.3574 18.0528 20.7846C18.0439 24.4526 20.3761 27.7175 23.8488 28.8988C27.3215 30.0798 31.1606 28.9142 33.3902 26.0018C35.6199 23.0894 35.7437 19.0791 33.6968 16.035H36.0559C36.7349 18.3147 39.7897 19.8347 42.5652 19.8347C45.3413 19.8347 48.396 18.3147 49.076 16.035H49.4002V17.9348C49.4002 18.4594 49.8256 18.8848 50.3502 18.8848H56.0497C56.5743 18.8848 56.9996 18.4594 56.9996 17.9348V2.73606C56.9996 2.21146 56.5743 1.78613 56.0497 1.78613ZM33.2515 20.7846C33.2515 24.4567 30.2742 27.4341 26.6021 27.4341C22.9295 27.4341 19.9526 24.4567 19.9526 20.7846C19.9484 19.4344 20.3617 18.1162 21.1354 17.0095C22.3358 15.2604 24.301 14.1917 26.4216 14.1351H26.6021C26.7208 14.1351 26.8368 14.1504 26.9555 14.156C27.6197 15.329 28.8683 16.0484 30.2162 16.035H31.2413C32.5247 17.2822 33.2492 18.9952 33.2515 20.7846ZM48.2648 14.1351C47.7402 14.1351 47.3149 14.5605 47.3149 15.0851C47.3149 16.5234 44.9632 17.9348 42.5652 17.9348C40.1677 17.9348 37.8156 16.5234 37.8156 15.0851C37.8156 14.5605 37.3908 14.1351 36.8657 14.1351H30.2162C29.1684 14.1319 28.3196 13.2831 28.3164 12.2353C28.3164 11.1861 29.1671 10.3354 30.2162 10.3354H40.6654V8.4356H30.2162C28.1179 8.4356 26.4165 10.1369 26.4165 12.2353H26.4008C24.0352 12.2933 21.7996 13.3295 20.2263 15.0962C20.2184 15.086 20.2091 15.0786 20.2012 15.067C19.7833 14.3239 19.922 13.3921 20.5384 12.8035L28.2737 5.07654C29.1633 4.18738 30.3693 3.68737 31.6272 3.68598H41.4256L47.8956 6.45876C48.0138 6.50978 48.1409 6.53575 48.2699 6.53575H49.4002V14.1351H48.2648ZM55.0998 16.9849H51.3001V3.68598H55.0998V16.9849Z" fill="black"/>
<path d="M25.6525 17.9338H27.5524C28.077 17.9338 28.5023 18.3591 28.5023 18.8837H30.4021C30.4021 17.3099 29.1261 16.0339 27.5524 16.0339V15.084H25.6525V16.0339C24.0787 16.0339 22.8027 17.3099 22.8027 18.8837C22.8027 20.4575 24.0787 21.7335 25.6525 21.7335H27.5524C28.077 21.7335 28.5023 22.1588 28.5023 22.6834C28.5023 23.208 28.077 23.6333 27.5524 23.6333H25.6525C25.1279 23.6333 24.7026 23.208 24.7026 22.6834H22.8027C22.8027 24.2571 24.0787 25.5331 25.6525 25.5331V26.4831H27.5524V25.5331C29.1261 25.5331 30.4021 24.2571 30.4021 22.6834C30.4021 21.1096 29.1261 19.8336 27.5524 19.8336H25.6525C25.1279 19.8336 24.7026 19.4083 24.7026 18.8837C24.7026 18.3591 25.1279 17.9338 25.6525 17.9338Z" fill="black"/>
<path d="M47.2772 36.1168C46.3653 35.6873 45.3194 35.6409 44.3732 35.9884L38.4514 38.1438C37.9078 37.0867 36.9027 36.3437 35.7325 36.1349L22.8222 33.8547C22.6585 33.8251 22.4897 33.8399 22.3338 33.8979L16.1292 36.1558L15.804 35.2629C15.6254 34.7694 15.0804 34.5138 14.5874 34.6929L7.4458 37.2982C6.95228 37.4768 6.69717 38.0218 6.87575 38.5153L0.62703 40.795C0.133515 40.9736 -0.121592 41.5186 0.0569829 42.0121L4.61133 54.5063C4.7477 54.8816 5.10392 55.1311 5.50327 55.1316C5.61367 55.1325 5.72406 55.1139 5.82796 55.0764L12.0767 52.7966C12.1625 53.0337 12.3387 53.2271 12.5674 53.3337C12.7956 53.4409 13.0572 53.4525 13.2942 53.3662L20.4349 50.7665C20.9284 50.5879 21.1835 50.0429 21.0049 49.5494L20.6803 48.6565L21.2596 48.4459L26.7063 50.2859C26.9113 50.3541 27.1331 50.3513 27.3362 50.278L30.013 49.3035L46.9739 43.129C48.4168 42.6026 49.4006 41.2593 49.4674 39.7245C49.5342 38.1902 48.6705 36.7667 47.279 36.1168H47.2772ZM11.4268 51.0123L6.071 52.9618L2.17251 42.2524L7.52836 40.3001L11.4268 51.0123ZM13.5377 51.2558L8.98849 38.7584L14.349 36.8093L18.8982 49.3054L13.5377 51.2558ZM46.3222 41.3451L26.9972 48.3745L21.5504 46.5345C21.3459 46.4654 21.1241 46.4681 20.9214 46.5419L20.0286 46.867L16.7794 37.9378L22.7443 35.7671L35.4031 37.9995C36.0762 38.1141 36.6346 38.5844 36.8619 39.2287C36.8958 39.3381 36.9227 39.4495 36.9426 39.5622C36.9853 39.7746 36.9881 39.9926 36.9505 40.206C36.7659 41.2394 35.7816 41.93 34.7473 41.7514L24.0495 39.865L23.7197 41.7366L34.4152 43.6221C36.4853 43.9811 38.4551 42.5965 38.8188 40.5274C38.8434 40.3581 38.8568 40.1879 38.8587 40.0172L45.023 37.7732C46.0091 37.4146 47.0995 37.923 47.4586 38.9096C47.8171 39.8957 47.3087 40.9861 46.3222 41.3451Z" fill="black"/>
</g>
<defs>
<clipPath id="clip0">
<rect width="57" height="57" fill="white"/>
</clipPath>
</defs>
</svg>
