<svg width="51" height="51" viewBox="0 0 51 51" fill="none" xmlns="http://www.w3.org/2000/svg">
<path d="M42.5 27.2012C44.8435 27.2012 46.75 25.2946 46.75 22.9512C46.75 20.6077 44.8435 18.7012 42.5 18.7012C40.1566 18.7012 38.25 20.6077 38.25 22.9512C38.25 25.2946 40.1566 27.2012 42.5 27.2012ZM42.5 20.4012C43.9059 20.4012 45.05 21.5453 45.05 22.9512C45.05 24.3571 43.9059 25.5012 42.5 25.5012C41.0941 25.5012 39.95 24.3571 39.95 22.9512C39.95 21.5453 41.0941 20.4012 42.5 20.4012Z" fill="black"/>
<path d="M35.6992 36.5479H15.2992C14.8292 36.5479 14.4492 36.9278 14.4492 37.3979C14.4492 37.8679 14.8292 38.2479 15.2992 38.2479H35.6992C36.1693 38.2479 36.5492 37.8679 36.5492 37.3979C36.5492 36.9278 36.1693 36.5479 35.6992 36.5479Z" fill="black"/>
<path d="M35.6992 40.7988H15.2992C14.8292 40.7988 14.4492 41.1788 14.4492 41.6488C14.4492 42.1189 14.8292 42.4988 15.2992 42.4988H35.6992C36.1693 42.4988 36.5492 42.1189 36.5492 41.6488C36.5492 41.1788 36.1693 40.7988 35.6992 40.7988Z" fill="black"/>
<path d="M43.35 14.45V0H7.65V14.45H0V43.35H5.1V45.9H7.65V51H43.35V45.9H45.9V43.35H51V14.45H43.35ZM9.35 1.7H41.65V14.45H9.35V1.7ZM7.65 16.15H43.35H49.3V29.75H1.7V16.15H7.65ZM6.8 44.2V42.5V41.65V38.25C6.8 37.7799 6.42005 37.4 5.95 37.4C5.47995 37.4 5.1 37.7799 5.1 38.25V41.65H1.7V31.45H7.65V44.2H6.8ZM41.65 49.3H9.35V45.9V31.45H41.65V45.9V49.3ZM45.9 41.65V38.25C45.9 37.7799 45.5201 37.4 45.05 37.4C44.58 37.4 44.2 37.7799 44.2 38.25V41.65V42.5V44.2H43.35V31.45H49.3V41.65H45.9Z" fill="black"/>
</svg>
