<svg width="19" height="12" viewBox="0 0 19 12" fill="none" xmlns="http://www.w3.org/2000/svg">
<line x1="4.37114e-08" y1="2.5" x2="15" y2="2.5" stroke="black"/>
<path d="M18.4999 2.28571C18.4999 3.28251 17.7125 4.07143 16.7646 4.07143C15.8167 4.07143 15.0293 3.28251 15.0293 2.28571C15.0293 1.28892 15.8167 0.5 16.7646 0.5C17.7125 0.5 18.4999 1.28892 18.4999 2.28571Z" stroke="black"/>
<line x1="-4.27472e-08" y1="9.78613" x2="7.82353" y2="9.78613" stroke="black"/>
<line x1="11.1758" y1="9.78613" x2="18.9993" y2="9.78613" stroke="black"/>
<path d="M11.2362 9.71443C11.2362 10.7112 10.4488 11.5001 9.50092 11.5001C8.553 11.5001 7.76562 10.7112 7.76562 9.71443C7.76562 8.71763 8.553 7.92871 9.50092 7.92871C10.4488 7.92871 11.2362 8.71763 11.2362 9.71443Z" stroke="black"/>
</svg>
