<svg width="21" height="21" viewBox="0 0 21 21" fill="none" xmlns="http://www.w3.org/2000/svg">
<path d="M14.4375 0H6.5625C2.93869 0 0 2.93869 0 6.5625V14.4375C0 18.0613 2.93869 21 6.5625 21H14.4375C18.0613 21 21 18.0613 21 14.4375V6.5625C21 2.93869 18.0613 0 14.4375 0ZM19.0312 14.4375C19.0312 16.9706 16.9706 19.0312 14.4375 19.0312H6.5625C4.02938 19.0312 1.96875 16.9706 1.96875 14.4375V6.5625C1.96875 4.02938 4.02938 1.96875 6.5625 1.96875H14.4375C16.9706 1.96875 19.0312 4.02938 19.0312 6.5625V14.4375Z" fill="black"/>
<path d="M10.5 5.25C7.60069 5.25 5.25 7.60069 5.25 10.5C5.25 13.3993 7.60069 15.75 10.5 15.75C13.3993 15.75 15.75 13.3993 15.75 10.5C15.75 7.60069 13.3993 5.25 10.5 5.25ZM10.5 13.7812C8.69138 13.7812 7.21875 12.3086 7.21875 10.5C7.21875 8.69006 8.69138 7.21875 10.5 7.21875C12.3086 7.21875 13.7812 8.69006 13.7812 10.5C13.7812 12.3086 12.3086 13.7812 10.5 13.7812Z" fill="black"/>
<path d="M16.1429 5.55537C16.5293 5.55537 16.8425 5.24217 16.8425 4.85581C16.8425 4.46945 16.5293 4.15625 16.1429 4.15625C15.7566 4.15625 15.4434 4.46945 15.4434 4.85581C15.4434 5.24217 15.7566 5.55537 16.1429 5.55537Z" fill="black"/>
</svg>
