<svg width="13" height="14" viewBox="0 0 13 14" fill="none" xmlns="http://www.w3.org/2000/svg">
<path d="M8.13879 12.4355C8.22972 11.2454 8.01753 10.0553 8.07817 8.86523C8.07815 8.73999 8.09332 8.63035 8.09332 8.50508C9.21477 8.41118 10.3665 8.34854 11.5031 8.27025C12.1093 8.23893 13.2308 7.80048 12.958 6.92358C12.67 5.9997 11.7001 5.84312 10.8818 5.74916C10.0331 5.65521 9.16931 5.63955 8.3358 5.68653C8.41157 4.70001 8.45704 3.7135 8.42673 2.71133C8.39637 1.99097 8.3509 0.0336087 7.2901 0.00231646C6.28989 -0.0603192 5.95649 1.16108 5.97164 1.991C5.97164 2.08495 6.01711 2.16325 6.09288 2.21022C6.22927 3.44728 6.16866 4.66867 6.06257 5.90573C4.4562 6.12492 4.17285 6.24563 2.59677 6.43354C2.53615 6.43354 1.15248 6.71996 1.15248 6.71996C1.15248 6.71996 0.0158817 6.98616 0.00072698 7.53423C-0.0296072 8.56774 0.894853 8.89655 1.74349 8.99053C3.06195 9.16278 4.48649 8.94355 5.85043 8.75562C5.80497 9.74213 5.80497 10.713 5.94136 11.6995C6.04744 12.4981 6.24443 13.7351 7.13858 13.97C7.97209 14.2049 8.10845 12.9992 8.13879 12.4355Z" fill="#40E150"/>
</svg>
