<svg width="14" height="15" viewBox="0 0 14 15" fill="none" xmlns="http://www.w3.org/2000/svg">
<path d="M1.3483 14.9012L6.9493 2.15301C6.97184 2.10165 7.04321 2.10165 7.06575 2.15301L12.6517 14.9012C12.678 14.9605 12.7344 15 12.7982 15H13.8388C13.9552 15 14.0341 14.8696 13.9853 14.759L7.74193 0.49776C7.61045 0.197524 7.32119 0 7.00564 0C6.69009 0 6.40084 0.193573 6.26936 0.49381L0.0147259 14.755C-0.0341091 14.8696 0.044778 14.996 0.161231 14.996H1.20179C1.2619 15 1.322 14.9605 1.3483 14.9012Z" fill="black"/>
<path d="M7.00001 6.59998C6.35391 6.59998 5.83334 7.13543 5.83334 7.79998C5.83334 8.46454 6.35391 8.99998 7.00001 8.99998C7.64611 8.99998 8.16667 8.46454 8.16667 7.79998C8.16667 7.13543 7.64241 6.59998 7.00001 6.59998ZM7.00001 8.34682C6.70834 8.34682 6.46836 8.10378 6.46836 7.79998C6.46836 7.49998 6.70465 7.25315 7.00001 7.25315C7.29168 7.25315 7.53165 7.49618 7.53165 7.79998C7.52796 8.09998 7.29168 8.34682 7.00001 8.34682Z" fill="black"/>
<path d="M7.29167 7.79998C7.45276 7.79998 7.58334 7.66567 7.58334 7.49998C7.58334 7.3343 7.45276 7.19998 7.29167 7.19998C7.13059 7.19998 7.00001 7.3343 7.00001 7.49998C7.00001 7.66567 7.13059 7.79998 7.29167 7.79998Z" fill="black"/>
<path d="M3.5 4.95601L1.39305 0.0997935C1.36676 0.0399388 1.31042 3.55928e-05 1.24657 3.55928e-05H0.161177C0.0447502 3.55928e-05 -0.0341193 0.131716 0.0147049 0.243445L2.79017 6.60002L3.5 4.95601Z" fill="black"/>
<path d="M13.8363 3.55928e-05H12.7763C12.7115 3.55928e-05 12.6543 0.040304 12.6276 0.100707L10.5 4.96915L11.2092 6.60002L13.9851 0.245672C14.0346 0.132921 13.9545 3.55928e-05 13.8363 3.55928e-05Z" fill="black"/>
<path d="M9.15775 8.40002L7.05742 12.824C7.03281 12.8759 6.95487 12.8759 6.93025 12.824L4.85454 8.43994L4.08333 10.077L6.18776 14.4969C6.33133 14.8004 6.6472 15 6.99179 15C7.33637 15 7.65224 14.8044 7.79582 14.5009L9.91665 10.0251L9.15775 8.40002Z" fill="black"/>
</svg>
