<svg width="45" height="45" viewBox="0 0 45 45" fill="none" xmlns="http://www.w3.org/2000/svg">
<path d="M33.5747 23.263C30.8261 23.2534 28.1969 24.3853 26.3151 26.3889C23.6086 24.2296 20.246 23.0593 16.7837 23.0724H16.7564C12.5952 23.0812 8.73366 24.6987 5.8717 27.6425C2.96399 30.6138 1.37404 34.6751 1.38285 39.0818C1.38455 39.323 1.47917 39.5537 1.64651 39.7268C1.81727 39.8978 2.04968 39.993 2.29147 39.9904L26.1424 39.945C26.1969 40.0086 26.2512 40.0632 26.306 40.1268C29.4374 43.4408 34.4149 44.2159 38.406 42.0114C42.397 39.8066 44.391 35.1811 43.2531 30.7658C42.1152 26.3506 38.1343 23.2644 33.5747 23.263ZM3.22737 38.1641C3.4183 34.5932 4.79942 31.3315 7.1707 28.9057C9.68774 26.3162 13.0949 24.8896 16.7564 24.8896H16.7837C19.8397 24.8777 22.8082 25.9096 25.1974 27.8152C23.1844 30.9244 23.0517 34.891 24.8522 38.128L3.22737 38.1641ZM33.5747 41.4352C29.0583 41.4352 25.3974 37.774 25.3974 33.2576C25.3974 28.7417 29.0583 25.0803 33.5747 25.0803C38.0911 25.0803 41.7521 28.7417 41.7521 33.2576C41.7521 37.774 38.0911 41.4352 33.5747 41.4352Z" fill="black"/>
<path d="M16.7641 20.9112C22.068 20.9112 26.368 16.6113 26.368 11.3073C26.368 6.00303 22.068 1.70312 16.7641 1.70312C11.4601 1.70312 7.16016 6.00303 7.16016 11.3073C7.16527 16.609 11.4621 20.9061 16.7641 20.9112ZM16.7641 3.52037C21.0648 3.52037 24.5507 7.00683 24.5507 11.3073C24.5507 15.6075 21.0648 19.094 16.7641 19.094C12.4636 19.094 8.9774 15.6075 8.9774 11.3073C8.98252 7.00882 12.4656 3.52577 16.7641 3.52037Z" fill="black"/>
<path d="M37.2549 32.3496H34.4835V29.5785C34.4835 29.0765 34.0767 28.6699 33.5749 28.6699C33.0731 28.6699 32.6663 29.0765 32.6663 29.5785V32.3496H29.895C29.3932 32.3496 28.9863 32.7564 28.9863 33.2582C28.9863 33.7603 29.3932 34.1668 29.895 34.1668H32.6663V36.9382C32.6663 37.4399 33.0731 37.8468 33.5749 37.8468C34.0767 37.8468 34.4835 37.4399 34.4835 36.9382V34.1668H37.2549C37.7566 34.1668 38.1632 33.7603 38.1632 33.2582C38.1632 32.7564 37.7566 32.3496 37.2549 32.3496Z" fill="black"/>
</svg>
