<svg width="48" height="48" viewBox="0 0 48 48" fill="none" xmlns="http://www.w3.org/2000/svg">
<path d="M25.1799 20.0726C27.9136 20.0726 30.1292 17.8565 30.1292 15.1232C30.1292 12.3895 27.9136 10.1738 25.1799 10.1738C22.4466 10.1738 20.2305 12.3895 20.2305 15.1232C20.234 17.8552 22.4479 20.0695 25.1799 20.0726ZM25.1799 11.9766C26.9175 11.9766 28.3264 13.3855 28.3264 15.1232C28.3264 16.8609 26.9175 18.2698 25.1799 18.2698C23.4422 18.2698 22.0333 16.8609 22.0333 15.1232C22.0355 13.3864 23.4431 11.9788 25.1799 11.9766Z" fill="black"/>
<path d="M48 6.87309C48 6.37529 47.5964 5.97168 47.0986 5.97168H0.901408C0.403609 5.97168 0 6.37529 0 6.87309V41.1266C0 41.6244 0.403609 42.028 0.901408 42.028H47.0986C47.5964 42.028 48 41.6244 48 41.1266V6.87309ZM1.80282 40.2252V32.0993L13.9683 21.2353L26.2236 31.0813C26.559 31.3506 27.0374 31.3458 27.3671 31.0703L37.6158 22.4875L46.1972 27.0848V40.2252H1.80282ZM46.1972 7.7745V25.0395L37.9296 20.6099C37.6052 20.4365 37.2077 20.4774 36.9256 20.7138L26.776 29.2129L14.5013 19.3515C14.158 19.076 13.6655 19.0888 13.3367 19.3819L1.80282 29.6821V7.7745H46.1972Z" fill="black"/>
</svg>
