<svg width="24" height="22" viewBox="0 0 24 22" fill="none" xmlns="http://www.w3.org/2000/svg">
<path d="M22.9519 0.560825C21.8689 -0.0223293 20.661 1.10233 19.9529 1.76879C18.3284 3.35164 16.9538 5.18441 15.4126 6.85056C13.7048 8.68334 12.1219 10.5161 10.3725 12.3073C9.37276 13.307 8.28976 14.39 7.6233 15.6396C6.12376 14.1817 4.83249 12.5988 3.16634 11.3076C1.95837 10.3912 -0.0410133 9.72475 0.000640601 11.9324C0.0839484 14.8066 2.62484 17.889 4.49926 19.8466C5.29068 20.6797 6.33203 21.5545 7.53999 21.5961C8.99788 21.6794 10.4974 19.93 11.3722 18.9719C12.9134 17.3058 14.163 15.4313 15.5792 13.7235C17.412 11.4742 19.2864 9.26649 21.0775 6.97553C22.2022 5.55929 25.7427 2.0603 22.9519 0.560825ZM1.83334 11.7658C1.79169 11.7658 1.75004 11.7658 1.66673 11.8074C1.50011 11.7658 1.37515 11.7241 1.20854 11.6408C1.3335 11.5575 1.54177 11.5991 1.83334 11.7658Z" fill="white"/>
</svg>
