<?xml version="1.0" encoding="utf-8"?>
<!-- Generator: Adobe Illustrator 22.1.0, SVG Export Plug-In . SVG Version: 6.00 Build 0)  -->
<svg version="1.1" id="Слой_1" xmlns="http://www.w3.org/2000/svg" xmlns:xlink="http://www.w3.org/1999/xlink" x="0px" y="0px"
	 viewBox="0 0 911.3 48.7" style="enable-background:new 0 0 911.3 48.7;" xml:space="preserve">
<g>
	<g>
		<path fill="#f8f8f8" d="M0.5,0.2c2.9,0.6,5.8,1.3,8.8,1.9C17.6,3.8,26,5.7,34.4,7.3c12.7,2.3,25.5,4.7,38.3,6.6c13.8,2.1,27.7,3.8,41.6,5.6
			c12,1.5,24,2.8,36,4.1c10.6,1.2,21.2,2.3,31.9,3.5c9.4,1,18.9,2,28.3,3c7.9,0.8,15.8,1.7,23.7,2.5c7.6,0.8,15.2,1.5,22.9,2.3
			c8.4,0.8,16.7,1.6,25.1,2.3c7.5,0.6,14.9,1.2,22.4,1.7c8.7,0.7,17.4,1.3,26.1,1.9c5.6,0.4,11.3,0.7,17,1
			c7.8,0.4,15.6,0.8,23.4,1.2c5.8,0.3,11.6,0.5,17.3,0.7c4.7,0.2,9.4,0.3,14.1,0.5c6.1,0.2,12.2,0.3,18.3,0.5
			c4.4,0.1,8.8,0.2,13.2,0.2c17,0.1,34.1,0.2,51.1,0.2c7.4,0,14.8-0.2,22.2-0.3c6.3-0.1,12.5-0.3,18.8-0.5c4.8-0.1,9.7-0.3,14.5-0.5
			c6.1-0.2,12.3-0.5,18.4-0.7c5.4-0.2,10.8-0.5,16.3-0.7c6.7-0.3,13.5-0.6,20.2-1c6-0.3,12-0.6,18-1c6.7-0.4,13.4-0.8,20.1-1.2
			c5.9-0.4,11.8-0.8,17.7-1.2c8.7-0.7,17.5-1.4,26.2-2.1c6.3-0.5,12.6-1,18.8-1.5c10.1-0.9,20.2-1.8,30.2-2.8
			c9.4-0.9,18.8-1.7,28.2-2.8c12-1.3,24-2.7,36-4.2c17.2-2.1,34.2-5.1,51.1-8.4c18.7-3.6,37.3-7.6,55.7-12.3c4.5-1.1,9-2.4,13.6-3.6
			c0,0.4,0.1,0.7,0.1,1c0,15.6,0,31.1,0,46.7c0,0.2,0,0.5-0.1,0.7c-303.7,0-607.4,0-911,0c0-15.9,0-31.8,0-47.8
			C0.3,0.9,0.4,0.6,0.5,0.2z"/>
	</g>
</g>
</svg>
