<svg width="14" height="10" viewBox="0 0 14 10" fill="none" xmlns="http://www.w3.org/2000/svg">
<path d="M13.8185 4.50958C13.6956 4.36458 10.7568 0.963379 7.00009 0.963379C3.2432 0.963379 0.304597 4.36458 0.181344 4.50972C-0.0604716 4.79405 -0.0604716 5.2066 0.181486 5.4912C0.304597 5.63621 3.2432 9.03726 7.00009 9.03726C10.7568 9.03726 13.6956 5.63592 13.8187 5.49092C14.0605 5.2066 14.0605 4.79404 13.8185 4.50958ZM8.14761 3.00651C8.40023 2.86862 8.7525 3.02684 8.93433 3.35978C9.11615 3.69287 9.05872 4.07471 8.8061 4.21261C8.55362 4.35065 8.2012 4.19228 8.01924 3.85934C7.83756 3.52625 7.89485 3.14441 8.14761 3.00651ZM7.00009 7.80501C4.3758 7.80501 2.16733 5.7896 1.40293 5.00032C1.91912 4.46722 3.09436 3.37556 4.61107 2.72276C4.31524 3.17284 4.1418 3.71064 4.1418 4.28952C4.1418 5.86807 5.42139 7.14766 6.99994 7.14766C8.5785 7.14766 9.85823 5.86807 9.85823 4.28952C9.85823 3.71064 9.68493 3.17284 9.3891 2.72276C10.9058 3.37571 12.0809 4.46722 12.5971 5.00032C11.8327 5.79002 9.62423 7.80501 7.00009 7.80501Z" fill="black"/>
</svg>
