<svg width="21" height="23" viewBox="0 0 21 23" fill="none" xmlns="http://www.w3.org/2000/svg">
<path d="M14.5124 0.386963C14.2661 0.386963 14.0664 0.581352 14.0664 0.821061V2.81791C14.0664 3.05762 14.2661 3.25201 14.5124 3.25201C14.7587 3.25201 14.9584 3.05762 14.9584 2.81791V0.821061C14.9584 0.581352 14.7587 0.386963 14.5124 0.386963Z" fill="black"/>
<path d="M4.2546 13.9307C4.0084 13.9307 3.80859 14.1251 3.80859 14.3648C3.80859 14.6044 4.0084 14.7989 4.2546 14.7989C4.50079 14.7989 4.7006 14.6044 4.7006 14.3648C4.7006 14.1251 4.50079 13.9307 4.2546 13.9307Z" fill="black"/>
<path d="M20.7583 13.0625C20.7583 12.1051 19.958 11.3261 18.9743 11.3261H15.6448C16.1602 10.041 16.3689 8.52848 16.3287 7.18204C16.321 6.9251 16.3109 6.7765 16.2972 6.68296C16.2741 5.745 15.4828 4.98828 14.5143 4.98828C13.5306 4.98828 12.7303 5.76723 12.7303 6.72467V7.15877C12.7303 9.90426 9.1081 11.4468 6.37455 12.1083C6.16787 11.6484 5.69609 11.3261 5.14822 11.3261H0.68819C0.441908 11.3261 0.242188 11.5205 0.242188 11.7602V22.1786C0.242188 22.4183 0.441908 22.6127 0.68819 22.6127H5.14822C5.69243 22.6127 6.16149 22.2946 6.37031 21.8396C6.59666 21.8961 6.80677 21.9495 7.00074 21.9988C8.55795 22.3946 9.41575 22.6127 11.502 22.6127H16.2983C17.282 22.6127 18.0823 21.8337 18.0823 20.8763C18.0823 20.5193 17.9709 20.1872 17.7804 19.9109C18.4693 19.6764 18.9743 19.0356 18.9743 18.2717C18.9743 17.916 18.8657 17.5828 18.6757 17.3053C19.3616 17.0704 19.8663 16.4311 19.8663 15.6671C19.8663 15.3101 19.7549 14.978 19.5644 14.7017C20.2534 14.4672 20.7583 13.8265 20.7583 13.0625ZM5.59422 21.3104C5.59422 21.5497 5.39414 21.7445 5.14822 21.7445H1.13419V12.1943H5.14822C5.39414 12.1943 5.59422 12.389 5.59422 12.6284V21.3104ZM18.9743 13.9307C18.0177 13.9307 17.7896 13.9307 16.7443 13.9307C16.498 13.9307 16.2983 14.1251 16.2983 14.3648C16.2983 14.6045 16.498 14.7989 16.7443 14.7989H18.0823C18.5742 14.7989 18.9743 15.1884 18.9743 15.6671C18.9743 16.1466 18.575 16.5353 18.0823 16.5353H15.8523C15.606 16.5353 15.4063 16.7297 15.4063 16.9694C15.4063 17.2091 15.606 17.4035 15.8523 17.4035H17.1903C17.6763 17.4035 18.0823 17.7814 18.0823 18.2717C18.0823 18.7512 17.6829 19.1399 17.1903 19.1399C16.2337 19.1399 16.0056 19.1399 14.9603 19.1399C14.714 19.1399 14.5143 19.3343 14.5143 19.574C14.5143 19.8137 14.714 20.0081 14.9603 20.0081H16.2983C16.7901 20.0081 17.1903 20.3975 17.1903 20.8763C17.1903 21.355 16.7901 21.7445 16.2983 21.7445H11.502C9.53033 21.7445 8.76026 21.5487 7.22614 21.1588C7.0014 21.1016 6.7549 21.039 6.48623 20.9723V12.9768C9.71386 12.2285 13.6223 10.402 13.6223 7.15877V6.72467C13.6223 6.24595 14.0224 5.85648 14.5143 5.85648C15.0052 5.85648 15.4053 6.24534 15.4063 6.72333V6.72467C15.4063 6.91333 15.6482 9.22868 14.6781 11.3261H13.1763C12.93 11.3261 12.7303 11.5205 12.7303 11.7602C12.7303 11.9999 12.93 12.1943 13.1763 12.1943C13.4877 12.1943 18.466 12.1943 18.9743 12.1943C19.4662 12.1943 19.8663 12.5838 19.8663 13.0625C19.8663 13.542 19.467 13.9307 18.9743 13.9307Z" fill="black"/>
<path d="M4.2546 15.6672C4.00831 15.6672 3.80859 15.8616 3.80859 16.1013V19.5741C3.80859 19.8138 4.00831 20.0082 4.2546 20.0082C4.50088 20.0082 4.7006 19.8138 4.7006 19.5741V16.1013C4.7006 15.8616 4.50088 15.6672 4.2546 15.6672Z" fill="black"/>
<path d="M10.941 5.85645H9.15694C8.91066 5.85645 8.71094 6.05083 8.71094 6.29054C8.71094 6.53025 8.91066 6.72464 9.15694 6.72464H10.941C11.1872 6.72464 11.387 6.53025 11.387 6.29054C11.387 6.05083 11.1872 5.85645 10.941 5.85645Z" fill="black"/>
<path d="M19.8667 5.85669H18.0827C17.8364 5.85669 17.6367 6.05108 17.6367 6.29079C17.6367 6.5305 17.8364 6.72488 18.0827 6.72488H19.8667C20.113 6.72488 20.3127 6.5305 20.3127 6.29079C20.3127 6.05108 20.113 5.85669 19.8667 5.85669Z" fill="black"/>
<path d="M18.6125 2.30044C18.4383 2.13097 18.156 2.13097 17.9817 2.30044L16.7205 3.52803C16.5463 3.69754 16.5463 3.97241 16.7205 4.14197C16.8947 4.31149 17.177 4.31145 17.3512 4.14197L18.6125 2.91439C18.7867 2.74487 18.7867 2.47 18.6125 2.30044Z" fill="black"/>
<path d="M12.3117 3.52803L11.0505 2.30044C10.8763 2.13097 10.5939 2.13097 10.4197 2.30044C10.2455 2.46996 10.2455 2.74483 10.4197 2.91439L11.6809 4.14197C11.8552 4.31149 12.1375 4.31145 12.3117 4.14197C12.4859 3.97246 12.4859 3.69759 12.3117 3.52803Z" fill="black"/>
</svg>
