<svg width="64" height="52" viewBox="0 0 64 52" fill="none" xmlns="http://www.w3.org/2000/svg">
<path d="M62.7069 1.67859C62.5872 1.37562 62.3113 1.16243 61.9879 1.12287C61.6654 1.08346 61.3457 1.22391 61.1565 1.48911C60.0333 3.06383 58.5595 3.58873 56.8522 4.19661C55.4755 4.68699 54.0519 5.19368 52.5134 6.29831C50.3374 7.86044 49.3421 9.98984 49.8385 12.0081L49.7854 12.0761C48.8768 10.758 47.8882 9.53887 46.8449 8.45024C41.9637 3.35702 35.1431 0.29499 28.1315 0.0495001C27.8226 0.0386849 27.5086 0.0332031 27.1984 0.0332031C19.3691 0.0332031 11.8752 3.53318 6.63843 9.63546C1.42907 15.7062 -0.879904 23.6088 0.303841 31.3171C0.402807 31.9614 0.526664 32.6124 0.672298 33.2524C2.5977 41.7271 7.51535 48.174 14.1645 50.9394C15.8035 51.6212 17.4567 51.9667 19.0777 51.9667C23.1049 51.9667 26.6225 49.8127 28.7288 46.057C29.5295 44.6279 30.0461 43.1501 30.2637 41.6641C30.392 40.7871 30.3043 39.9107 30.2193 39.0615C30.1317 38.1874 30.049 37.3613 30.1813 36.5296C30.4846 34.623 31.8163 33.4846 33.744 33.4846C34.2923 33.4846 34.8526 33.5748 35.4122 33.753C34.757 34.9546 34.1621 36.1019 33.6422 37.1653C32.5404 39.419 31.7803 41.2854 31.3826 42.7122C31.1374 43.592 30.4859 45.9303 32.0744 47.0329C32.5789 47.383 33.2185 47.5066 33.8841 47.3827C34.484 47.2713 36.3092 46.9322 41.4959 41.0275C42.888 39.443 44.388 37.6093 45.9559 35.5764C49.981 34.2208 53.1132 30.8472 53.9419 26.9706C54.1493 26.0015 54.2358 24.9644 54.1989 23.8872C55.7059 21.5582 57.0277 19.3851 58.3579 17.0491C58.3833 17.004 58.4085 16.956 58.4334 16.9068C60.364 16.3781 62.0267 14.8756 63.0028 12.7747C64.4277 9.70835 64.3227 5.76748 62.7069 1.67859ZM40.9473 16.1984C40.2491 17.3073 39.0489 17.9694 37.7364 17.9694C37.0238 17.9694 36.3267 17.7677 35.7208 17.3861C34.8642 16.8465 34.2684 16.0058 34.0443 15.0186C33.8201 14.0315 33.9932 13.0159 34.5329 12.1591C35.2313 11.0502 36.4316 10.3881 37.7441 10.3881C38.4569 10.3881 39.1538 10.5897 39.7596 10.9715C40.6162 11.5108 41.2118 12.3516 41.4361 13.3388C41.6602 14.3261 41.4868 15.3416 40.9473 16.1984ZM45.8671 23.0657C47.7833 20.2423 49.8097 17.4359 51.7345 14.9395C52.0465 15.2213 52.3954 15.4966 52.7734 15.7588C53.3996 16.1933 54.0546 16.5293 54.7237 16.7594C53.0986 19.5385 51.3512 22.2918 49.2356 25.4079C45.7595 30.5297 42.1451 35.2873 39.0582 38.8045C37.334 40.769 35.8251 42.2858 34.6624 43.2252C35.1111 41.7896 35.9688 39.8193 37.1625 37.4849C39.2969 33.3104 42.3883 28.1896 45.8671 23.0657ZM12.2235 23.0414C11.5107 23.0414 10.8137 22.8398 10.2076 22.458C9.35097 21.9186 8.75554 21.0781 8.53124 20.0906C8.30693 19.1033 8.48057 18.0878 9.02029 17.231C9.71824 16.1222 10.9186 15.4601 12.2309 15.4601C12.9438 15.4601 13.6409 15.6617 14.2468 16.0435C16.0152 17.1574 16.548 19.5022 15.4349 21.2702C14.7362 22.3793 13.5357 23.0414 12.2235 23.0414ZM8.25034 31.3876C8.94859 30.2785 10.1488 29.6164 11.4613 29.6164C12.1739 29.6164 12.8708 29.8182 13.477 30.1999C14.3337 30.7393 14.9291 31.5799 15.1534 32.5672C15.3778 33.5542 15.2042 34.5697 14.6643 35.4267C13.9664 36.5354 12.7661 37.1976 11.4537 37.1976C10.7409 37.1976 10.0437 36.996 9.43749 36.6142C8.58087 36.0746 7.98559 35.2341 7.76143 34.2468C7.53743 33.2598 7.71121 32.2442 8.25034 31.3876ZM20.3888 8.87662C21.0871 7.76769 22.2874 7.1056 23.5998 7.1056C24.3122 7.1056 25.0093 7.30723 25.6152 7.68888C27.3837 8.8024 27.9165 11.1474 26.8033 12.9157C26.1047 14.0248 24.9044 14.6869 23.5921 14.6869C22.8794 14.6869 22.1824 14.4853 21.5764 14.1035C20.72 13.5642 20.1247 12.7236 19.9004 11.7361C19.6758 10.749 19.8494 9.73354 20.3888 8.87662Z" fill="#E3E3E3"/>
</svg>
