<svg width="20" height="16" viewBox="0 0 20 16" fill="none" xmlns="http://www.w3.org/2000/svg">
<path d="M17.6883 15.9015H2.31134C1.03666 15.9015 0 14.8649 0 13.5902V4.21652C0 2.94184 1.03666 1.90518 2.31134 1.90518H5.44901L5.72365 0.978687C5.83574 0.471716 6.2992 0.0996094 6.84429 0.0996094H13.1558C13.6855 0.0996094 14.1542 0.469798 14.2783 0.983302L14.2856 1.01489L14.536 1.90512H17.6887C18.9633 1.90512 20 2.94178 20 4.21646V13.5901C19.9996 14.8649 18.9626 15.9015 17.6883 15.9015ZM2.31134 2.67564C1.46151 2.67564 0.770466 3.36675 0.770466 4.21652V13.5901C0.770466 14.44 1.46157 15.131 2.31134 15.131H17.6883C18.5381 15.131 19.2292 14.4399 19.2292 13.5901V4.21652C19.2292 3.36669 18.5381 2.67564 17.6883 2.67564H13.9524L13.5306 1.17133C13.4917 0.996429 13.3342 0.869716 13.1554 0.869716H6.84387C6.66243 0.869716 6.50833 0.993732 6.46865 1.17175L6.02335 2.67564H2.31134ZM10.0004 13.5728C7.30427 13.5728 5.11077 11.3797 5.11077 8.68395C5.11077 5.9878 7.30421 3.79472 10.0004 3.79472C12.6959 3.79472 14.8889 5.98816 14.8889 8.68395C14.8889 11.3794 12.6958 13.5728 10.0004 13.5728ZM10.0004 4.56477C7.72912 4.56477 5.88124 6.41229 5.88124 8.68359C5.88124 10.9549 7.72918 12.802 10.0004 12.802C12.2713 12.802 14.1185 10.9545 14.1185 8.68359C14.1184 6.41229 12.2709 4.56477 10.0004 4.56477ZM17.191 4.10557C16.7981 4.10557 16.4802 4.42415 16.4802 4.81633C16.4802 5.20888 16.798 5.52704 17.191 5.52704C17.5835 5.52704 17.9013 5.20882 17.9013 4.81633C17.901 4.42415 17.5831 4.10557 17.191 4.10557Z" fill="#059FF9"/>
</svg>
